/* XPM */
static char *b1872566be6f492de109e247b50b9bbejcAaju6uXAJYRBMJ[] = {
/* columns rows colors chars-per-pixel */
"30 50 185 2 ",
"   c None",
".  c #020201",
"X  c #090404",
"o  c #0E0A08",
"O  c #100B09",
"+  c #1A0A08",
"@  c #19140C",
"#  c #15110E",
"$  c #1D1A19",
"%  c #270E05",
"&  c #2C180F",
"*  c #24150C",
"=  c #3E1D0A",
"-  c #381402",
";  c #2B1D15",
":  c #2B1C16",
">  c #311F16",
",  c #2B200F",
"<  c #3D200B",
"1  c #2F2319",
"2  c #36271B",
"3  c #37301C",
"4  c #232222",
"5  c #3C2C21",
"6  c #352B22",
"7  c #3B3322",
"8  c #3F312A",
"9  c #3B3B3C",
"0  c #323232",
"q  c #45240C",
"w  c #492B14",
"e  c #472A13",
"r  c #4F351E",
"t  c #42391F",
"y  c #45311B",
"u  c #412E23",
"i  c #443424",
"p  c #453B25",
"a  c #4D3A2D",
"s  c #493427",
"d  c #513D2E",
"f  c #543F31",
"g  c #4A4223",
"h  c #4F432A",
"j  c #52432A",
"k  c #524928",
"l  c #574527",
"z  c #544233",
"x  c #5A4534",
"c  c #59493A",
"v  c #5C5332",
"b  c #5D5238",
"n  c #625934",
"m  c #605632",
"M  c #47484A",
"N  c #594B44",
"B  c #5B5245",
"V  c #564F51",
"C  c #5C5959",
"Z  c #634E42",
"A  c #6B5544",
"S  c #685946",
"D  c #755C4B",
"F  c #6B5D55",
"G  c #715E53",
"H  c #6D6444",
"J  c #6D664B",
"K  c #766E4D",
"L  c #766949",
"P  c #7D724E",
"I  c #68635A",
"U  c #77655A",
"Y  c #7B6251",
"T  c #7C7455",
"R  c #5D5E61",
"E  c #5F6161",
"W  c #666566",
"Q  c #6A6565",
"!  c #6C6B6C",
"~  c #67686B",
"^  c #746A67",
"/  c #696D70",
"(  c #706D70",
")  c #747475",
"_  c #797679",
"`  c #7D7A7D",
"'  c #7A7776",
"]  c #8C6348",
"[  c #836855",
"{  c #83775A",
"}  c #88796F",
"|  c #947864",
" . c #877D76",
".. c #937B70",
"X. c #89815F",
"o. c #91845B",
"O. c #8E8366",
"+. c #988A62",
"@. c #9A916A",
"#. c #88817B",
"$. c #978C78",
"%. c #99967F",
"&. c #A39978",
"*. c #B3A67B",
"=. c #7D7C80",
"-. c #827F81",
";. c #7F8185",
":. c #848285",
">. c #8C8582",
",. c #85868B",
"<. c #8A878A",
"1. c #8C8B8D",
"2. c #8A898A",
"3. c #948C87",
"4. c #928C8D",
"5. c #988E89",
"6. c #9B928E",
"7. c #8D8F92",
"8. c #928F92",
"9. c #8F9195",
"0. c #949395",
"q. c #959599",
"w. c #99969A",
"e. c #9C999D",
"r. c #9A9796",
"t. c #AC978A",
"y. c #A69C97",
"u. c #B4AB81",
"i. c #BDB287",
"p. c #ACA29C",
"a. c #9E9EA1",
"s. c #A19EA2",
"d. c #A4A2A4",
"f. c #ADA9A7",
"g. c #A4A6A9",
"h. c #A9A6A9",
"j. c #ACAAAD",
"k. c #A8A7A5",
"l. c #B0ABAA",
"z. c #B4A9A2",
"x. c #B7B2AA",
"c. c #AFADB0",
"v. c #B1AEB1",
"b. c #AFB3B4",
"n. c #B3B2B5",
"m. c #B6B6B9",
"M. c #B8B6B9",
"N. c #BCBABD",
"B. c #B9B8B7",
"V. c #C5B58B",
"C. c #C5BCAE",
"Z. c #C1BCBA",
"A. c #D6CB98",
"S. c #C7C2AD",
"D. c #C4C1BE",
"F. c #CDC4B8",
"G. c #D8CFB5",
"H. c #DCD3BE",
"J. c #E5D8AD",
"K. c #BEBDC0",
"L. c #C0BEC1",
"P. c #BFC1C3",
"I. c #C4C3C5",
"U. c #C6C6C8",
"Y. c #C9C7CA",
"T. c #CBCBCD",
"R. c #C8C4C2",
"E. c #DED7C7",
"W. c #CECED1",
"Q. c #D0CFD2",
"!. c #D2D2D3",
"~. c #D7D7D9",
"^. c #D7D9DB",
"/. c #DBDBDC",
"(. c #D9D6D3",
"). c #E1D7C2",
"_. c #DFDEE1",
"`. c #E0DDE0",
"'. c #DEE1E2",
"]. c #E2E3E4",
"[. c #E5E7E8",
"{. c #E5E8E9",
"}. c #EBEBEC",
"|. c #EFEFF1",
" X c #F4F5F4",
/* pixels */
"                                                            ",
"                                                            ",
"                                                            ",
"                                                            ",
"                                                            ",
"                                                            ",
"                                                            ",
"                                                            ",
"                                                            ",
"                                                            ",
"                                                            ",
"                                                            ",
"                                                            ",
"                                                            ",
"                                                            ",
"                        k.~.]./.!.0.                        ",
"                  }.T.[.}._./.(.Y.N.K./.a.                  ",
"              !.}./.}.{.[.[.[.].'.^.T.q.9.9.g.              ",
"          ! /.'./.}.~././.].].].[.].'.].g.q.9.j.M           ",
"        :.T.].[.'.'.].].].'.].].].].].[.}.|.q.q.:./         ",
"      ~ N.!./.'.[.[.].'.'./././.'.[.].'.Y._.`.N.7.n.~       ",
"      N.].].^.!.[.'.].'.(.H.G.).E.~.W.'.D.^././.I.n.K.      ",
"    b.'.I.Q.~.!. X}.[./.S.o.*.V.A.E.Z./.x.X.D./.W.n.N.m.    ",
"  ! /.T.j.n.(.j.~./.T.F.P @.@.o.V.J.&.} @ J T./.m.e.Y.T.-.  ",
"  I./.Y.j.j.N.e.Y.Y.n.$.H H P o.*.*.K 1 7 Y.N.T.n.q.Q.U.~.  ",
"  Y./.h.j.c.j.w.s.d.r.O.k m L P n v T 7 8.N.j.n.h.0.n.`.!.  ",
"  ].n.v.v.v.l.7.%.T m b k v t g z L { d.e.y.d.d.s.8.s.L.}.  ",
"1.{.n.n.K.v.h.>.b j p p k p g K v k z U } :.a.e.d.w.s.v.Y.0.",
"~./.Z.n.L.j.s.s.0.w.4.<.J g h H H @ ; J D [ Q K.l.V.L.W.U.T.",
"`.`.n.n.N.h.s.8.d.e.q.7.G y 3 t , 1 a d 5 [ ] $.c  .I.Y.T.I.",
"].[.M.N.M.j.w.<.s.e.0.1.; ] & ; + s f a a A i t j B n C.Y.K.",
"`./.I.n.c.h.w.-.:.e.0.0.. l e = - z i z 5 z 2 j j t k.I.P.m.",
"0.!.L.v.j.s.8.-.) w.y...X s w q = c & a % x 6 o 3 @ Z.I.W.) ",
"  !.L.j.g.w.8._ ! -.-.G o w w w = f * u @ f c . . X L.I.m.  ",
"  W.I.d.w.<.=.( =.<.% a O r q < % s > 2 O f f X . . N.N.9.  ",
"  v.n.a.<.q.g.c.| A F L.M.l.y.z.p.F l.s.: : c O . . g.K.q.  ",
"  W a.s.c.v.g.t.D > ].!.M.I.y.`. X( `.U.a b U # . . c.g.R   ",
"    7.,.9.a.J D 6.M.n.B.N s. .|._.-.U.Q.n.y.Z.8 . 9.g.a.    ",
"      7.:.1.h @ #.4.8.' Q :.>.A 3. .^ Q 7.8.x.6.F P.9.      ",
"      M ,./ ' X F L.s.w._ <.v.f s.8.-.8.w.3.t.N.g.,.E       ",
"        M / _ V p.e.2.` ! Q :.:._ W _ _ 7.G f.U.9.)         ",
"          9 ;.` 9.q.q.N : 4 u a a i N B r.M.m.g.E           ",
"              =.9.e.n.3.Z 0 d x S Z y.K.Y.I.g.              ",
"                  h.a.I./.(.].].T.Y.Y.K.n.                  ",
"                        2.n.T.I.m.1.                        ",
"                                                            ",
"                                                            ",
"                                                            ",
"                                                            ",
"                                                            "
};
