/* XPM */
static char *e1bd578cbc624059b750a81fff3bcf0dQ2XnxOOT746cXjsP[] = {
/* columns rows colors chars-per-pixel */
"50 50 209 2 ",
"   c None",
".  c #020101",
"X  c #0A0503",
"o  c #0B0806",
"O  c #0E0A09",
"+  c #070708",
"@  c #130B05",
"#  c #150C0A",
"$  c #1A0906",
"%  c #1A130C",
"&  c #1C1311",
"*  c #250C05",
"=  c #22130D",
"-  c #2A150C",
";  c #281A07",
":  c #371908",
">  c #251914",
",  c #331D14",
"<  c #300F05",
"1  c #3B270D",
"2  c #2C2216",
"3  c #34231A",
"4  c #3A251A",
"5  c #322A1B",
"6  c #3A2B18",
"7  c #3C331A",
"8  c #352924",
"9  c #3C3324",
"0  c #3A3A3B",
"q  c #242426",
"w  c #43230C",
"e  c #442B15",
"r  c #492C14",
"t  c #452A17",
"y  c #4E331C",
"u  c #43391D",
"i  c #52351C",
"p  c #432E23",
"a  c #443523",
"s  c #443B22",
"d  c #4B3A2B",
"f  c #473727",
"g  c #523D2E",
"h  c #573A23",
"j  c #4D3D31",
"k  c #533E31",
"l  c #4A431E",
"z  c #4C4323",
"x  c #4D452A",
"c  c #53462B",
"v  c #524B2B",
"b  c #564928",
"n  c #57502D",
"m  c #4D4332",
"M  c #554233",
"N  c #5A4535",
"B  c #5B4639",
"V  c #5D4A3C",
"C  c #554736",
"Z  c #5E5432",
"A  c #624C3C",
"S  c #655B3B",
"D  c #695D3C",
"F  c #615735",
"G  c #7E593D",
"H  c #68603E",
"J  c #484849",
"K  c #5A544A",
"L  c #5B5A5C",
"P  c #525254",
"I  c #504C4E",
"U  c #644F42",
"Y  c #6B5544",
"T  c #655645",
"R  c #765D4B",
"E  c #665D56",
"W  c #6E6545",
"Q  c #716545",
"!  c #7A6D49",
"~  c #75674B",
"^  c #7E724E",
"/  c #6C6656",
"(  c #776956",
")  c #7D7457",
"_  c #5C5E61",
"`  c #636364",
"'  c #66676A",
"]  c #6C6C6E",
"[  c #65686C",
"{  c #736A67",
"}  c #7A7467",
"|  c #6E6E71",
" . c #716E71",
".. c #6F7174",
"X. c #747375",
"o. c #757679",
"O. c #797779",
"+. c #7C7A7C",
"@. c #797778",
"#. c #8A6C58",
"$. c #837A54",
"%. c #877957",
"&. c #93745D",
"*. c #8E644A",
"=. c #967966",
"-. c #827D7C",
";. c #847A73",
":. c #8B776A",
">. c #8D835B",
",. c #93865E",
"<. c #8E8367",
"1. c #948863",
"2. c #9C9165",
"3. c #89827D",
"4. c #94867A",
"5. c #969271",
"6. c #A69A71",
"7. c #AD9176",
"8. c #B0A177",
"9. c #AEA67E",
"0. c #7E7E82",
"q. c #817E82",
"w. c #887F80",
"e. c #848285",
"r. c #848589",
"t. c #8A8689",
"y. c #8C8A8D",
"u. c #888789",
"i. c #928A86",
"p. c #8C8D91",
"a. c #918E91",
"s. c #8F9195",
"d. c #949295",
"f. c #959699",
"g. c #99969A",
"h. c #9C9A9D",
"j. c #999797",
"k. c #A49588",
"l. c #A49C98",
"z. c #B59E8D",
"x. c #BCB284",
"c. c #A9A397",
"v. c #B6AC98",
"b. c #9E9EA1",
"n. c #A19EA1",
"m. c #9FA1A5",
"M. c #A4A2A5",
"N. c #A5A6A9",
"B. c #A8A6A9",
"V. c #ACAAAD",
"C. c #AAA7A8",
"Z. c #B6ABA6",
"A. c #B5B1AB",
"S. c #AEAEB1",
"D. c #B1AEB1",
"F. c #AFB1B5",
"G. c #B3B2B5",
"H. c #B6B6B9",
"J. c #B9B6B9",
"K. c #BBBABD",
"L. c #BAB7B7",
"P. c #C09F8C",
"I. c #C4B88C",
"U. c #C7BC90",
"Y. c #C1BDBD",
"T. c #C9BDAB",
"R. c #CCC297",
"E. c #D6CB98",
"W. c #C8C4B8",
"Q. c #D8D2BE",
"!. c #E6DAAE",
"~. c #EBE5B7",
"^. c #BDBEC1",
"/. c #C0BEC1",
"(. c #BEC0C2",
"). c #C3C3C4",
"_. c #C6C6C9",
"`. c #C9C7CA",
"'. c #CBCBCC",
"]. c #C8C6C6",
"[. c #D9D3CA",
"{. c #CECED0",
"}. c #CFD1D3",
"|. c #D3D3D4",
" X c #DBD9D7",
".X c #D7D7D9",
"XX c #DCDBDD",
"oX c #D8D7D8",
"OX c #D1CECD",
"+X c #E3DAC7",
"@X c #E7DCD0",
"#X c #F1E7C5",
"$X c #DEDEE0",
"%X c #E0DEE1",
"&X c #DEE0E1",
"*X c #E2E2E4",
"=X c #E2E1E4",
"-X c #E2E5E6",
";X c #E5E5E6",
":X c #E2E2E3",
">X c #E5E6E8",
",X c #E5E8EA",
"<X c #EEEEEE",
"1X c #EAEBEC",
"2X c #EFF0F0",
"3X c #F2F2F2",
"4X c #F4F4F5",
"5X c #F8F8F7",
"6X c #EFEFF0",
/* pixels */
"                                        u.K.oX X:X X|.{.A.o.                                        ",
"                                  .X2X3X6X2XXX.X1X4X-X.X&X}.|._.F.                                  ",
"                            e.;X4X'.;X;X;X3X&XXX&X X'.'.|.G.(.G.$XN.f.P                             ",
"                        | &X5X;X X:X&X:X<X4X<X1X1X;X&X.X'.S.G.f.V.b.r.m.p.0                         ",
"                      |.5X,X,X&X$X3X2X,X-X,X-X*X;X-X;X-X-X-XXXH.p.b.s.r.S.'.p.                      ",
"                  ` :X.X&X&X}.,X1X X|.XX.X&X-X*X%X%X;X>X,X-X-X-X*X_.y.r.m.f._.b.J                   ",
"                +.2X{.3X:X;X2X&X}.oX-X;X-X*X*X*X%X;X-X*X*X*X&X&X$X>X,X_.[ ..r.^.p.P                 ",
"              e.}.'.2X'.-X1X&X&X-X:X-X:X:X*X&X&X-X%X%X*X*X*X*X-X>X,X2X2X1Xf.o.M.0.b.|               ",
"            +.H._..X}.'.1X,X,X,X&X*X:X:X:X$X%X&X%X%X$X%X;X*X,X,X;X,X|.*X:XXXH.[ ^.0.^.X.            ",
"          ' (.H.'..X1XL..X,X&X&X-X*X:X:X&X$X X X X$X$X%X*X>X%X%X$X$X/.XX$X%X$X`.o.^.S./.]           ",
"          H.(.2X}.,X-XG.|.*X-X*X-X*X|.:X[.@X[.[.Q.+XOX[.}.XX|.*X$X|.H.XXXX$XXXXX`.r.H./.^.          ",
"        K._.3X].).,XXXV.|.<X6XXX$X&X|.:X|.+XR.x.U.!.~.#X[.oXJ.%X&XK.K.{.:X{.%X$X$XF.M.B.G._.        ",
"      X._.-X}.).G. X1XB.|.3X4X3X.X,X}.XXW.I.,.>.I.x.9.E.~.[.A. XXXA.A.>.2./.%X%X$XS.G.G.^.`.e.      ",
"      K._.1X{.M.V.H.1XM.`.;X;X;XG.|.OX@X) >.8.$.8.2.>.R.I.#XT.Q.W.>.e ; A./.%X%X/.S.b._._.^..X      ",
"    e.H.2X'.G.D.B.G.;Xn.n.<X'.;XV.'.`.T.^ ^ ,.D 6.2.,.I.R.!.6.) H 2 $ T %X`.oXoXK.h.f.^.'.|.).g.    ",
"    ).{.;X|.G.V.V.V.'.g.h.G.|.}.V.^.`.1.! H H H $.>.,.9.R.8.%.d % > 2 /.|./.{.|.K.b.d.J.XXK.'.XX    ",
"    /.1X.XJ.D.n.V.V.G.d.j.C.S.).M.l.).( Q H n D $.8.>.2.>.2.) C T z } /.J.D.K./.J.l.f.`.).XX$X].    ",
"  G.{.,X.Xn.D.D.D.V.L.d.d.M.b.M.n.h.v.$.z Z F ! H $.W F F Z ) W 9 } h./.V.D.D.D.D.g.a.J.D.1X^.}._.  ",
"  {.$X%X`.G.D.D.D.D.D.h.j.g.d.d.c.1.1.S S D ! S Z n 7 S F ~ ) ) G.D.D.n.n.n.n.M.B.n.d.n.V.|.|.%X:X  ",
"  {.%X%Xn.D.G.D.D.D.V.G.u.c.2.$.n z s F z z v 7 l b ; d W W ! k.n.d.h.n.a.B.n.M.n.f.a.n.l.V.;X<XXX  ",
"] |.>X>Xn.G.J./.A.D.C.D.w.N i u 1 7 u 7 c s 9 7 z >.x v n n 7 c.:.4.k.n.t.l.h.f.n.d.y.n.g.g.<X_.oX@.",
"V.XX&XXXG.D.K./.D.C.B.n.f.w.j.+./ / E T n s C H z x S ! v 5 > 8 8 p > , P B.V.D.J./././.]./.;X{.,XN.",
"}.$X.X.XD.D.K./.J.B.B.n.n.a.g.g.h.y.y.t./ l z z x W ! W s X % c R Y R =.k { ^.^./.( I./.].].%X_.&X_.",
"XX,X1X|.V.D./.Y.J.M.n.h.b.S.n.n.h.d.d.a.y.Q 1 z n x x 5 @ 8 f M A Y N k U g L.).l.d a Y././.$X'.}.].",
"$X>X:X'.D.G.K.K.J.n.n.d.a.n.n.b.g.d.a.y.#.@ a 3 7 s 2 ; . 4 d f d Y = &.#.#.#.<.s s j.].).)..X}._.).",
"*X*X1XOXD.J.J.L.D.V.g.d.w.d.b.b.g.d.d.a., 4 *.h O 2 $ $ $ g g A d A d Y Y u s u z c / M ~ T.|.'.).K.",
";X&X;X|.J.J.J.G.D.B.d.p.w.r.n.b.g.d.d.p.+ $ G i 1 : - < , B d A k & g A A s s s b a 3 6 c l.}.K.K.K.",
"XX;X X&XY.J.G.D.V.n.b.p.q.q.t.b.g.d.d.d.. X h w r 1 w < k B t N M X d k M 5 c c b g u / Y./.`.^.F.H.",
"D.3X'.;XJ.D.D.V.n.n.n.w.q.O.0.l.h.g.g.i.X . i w w w w w M V - B k X 4 M N % s s b c s 4.G.V.).|.N.s.",
" .5X|.;XJ.D.D.C.n.n.g.w.0.X. .d.h.h.l.&.. X y r r w r : M V * N f X - k M 9 . . 5 5 X 4.|.'.K.`.H.L ",
"  XX'.$XD.D.B.n.n.g.d.y.O. .] O.b.d.7.U o @ r i r r w w A g $ M a o = N N N . . . . X k.}.`.K.H.N.  ",
"  |.;X`./.V.M.n.g.d.a.t.O. .]  .O.R R U o X i i w r r : N d # M 4 $ o k V M . . . . X Z.(.H._.S.f.  ",
"  _.{.K._.M.n.h.d.t.q. . .] w.a.:.* a j # . a i w w : * U 4 & g 4 3 . g N k X X . . X V./.S.|.s.m.  ",
"    K.D.^.b.p.e.+.O.r.e.h.Z.z.P.A X : k & . = i *.G y : k - 8 4 , a . = B B # X X . . c./.J.S.m.    ",
"    S.S.G.M.p.p.g.n.V.G.Z.P.( N N @.:X;X%X%XXX Xl.L.[.|., i.OX'.OXe.. > f A j . . . . i.N.{.s.f.    ",
"    +.V.b.b.n.S.G.J.B.M.z.=.U - M 6X3XoX|.3X'. Xj.<XK.4X8 w.2XH._.1X# B ~ U A . . . . ;.F.H.f...    ",
"      b.b.M.p.N.M.b.m.4.7.( U = j ).%XM.= $XB., { 5XO.2Xg.O.XX^./.`.& U &.l.A o . . + f.}.y.p.      ",
"      ` b.r.p.s.m.m.) 7 R Y V.K.J.G.|.V.> `.n.w l.5X X%XK.X.`.D.}.G.G.S.=.Y.U 8 . . s.(.m.S.[       ",
"        u.p.r.o.f.d.C 9 a N A._./.^.D.E 3 S.g.r C./.U d.G.@.D.d.e.G.D.V.&.Y.4.U . _ S.^.s.f.        ",
"          y.s.r.` d.d B o g i.y.E -.t.@.i.q +.i.;.t ;.i.-.+./ k L -.i.i.&.Z.J.l.] h._.r.f.          ",
"          J p.r.y.L e.] . { E OXa.M.f.h.y.0 a.a./.t t.M.d.a.t.} j.h.V.M.*.z.(.(.h.G.r.s.]           ",
"            J r.[ r._ p.X l.g ].S.h.t.t.O.t.+.] h.p a.a.-.t.q.E e.d.I ( #.4.F.N.F.s.s...            ",
"              P ..[ o...P d.C.y./.t.u.@.E r.' +.e.w.t.X. .` O.+.O.d.a.R #.V.G.'.p.f...              ",
"                J o.s.0.] 0.h.g.L.+.d.0.> X.+.I X.e.i.X.J X.X.0.t.g.I 3.V.(.F.s.N.]                 ",
"                  0 o.s.0.0.s.f.s.h.B d 4 > . . t t t t : 4 j j j ` H.^.{.G.^.N.'                   ",
"                      +.y.p.s.f.M.H.l.;.a , . . t t r y 1 p i.l._.).'.^.(.(.m.                      ",
"                        P f.f.N.M.V.'.K.*XXXY.M.c.c.Z.].$XXX}.H.S._._.'.V.`                         ",
"                            ' S.g.m.H.`.XX`.|.*X1X;X$X'.(.'.'.'.^.H.S.]                             ",
"                                  m._.V.H.D.G.XX-X].G.F.S.^.G.(.N.                                  ",
"                                        o.N.A.(.)._.(.G.M.X.                                        "
};
