/* XPM */
static char *b3a41f1f219e441de8e3191af483adb9GhVAZhEkytuDhtFu[] = {
/* columns rows colors chars-per-pixel */
"50 50 76 1 ",
"  c None",
". c #02268B",
"X c #02288A",
"o c #022794",
"O c #012A93",
"+ c #022D9C",
"@ c #022DA2",
"# c #022FAA",
"$ c #0231A6",
"% c #0834A3",
"& c #0231AA",
"* c #0934A9",
"= c #123AA2",
"- c #113BAC",
"; c #0235B5",
": c #0136BC",
"> c #0139BE",
", c #0137C1",
"< c #0139C3",
"1 c #023CCC",
"2 c #023ED3",
"3 c #013FD9",
"4 c #0341CE",
"5 c #0A40CE",
"6 c #0241D4",
"7 c #0B43D2",
"8 c #0249D7",
"9 c #0D49D7",
"0 c #0244DB",
"q c #0D47DB",
"w c #0349DB",
"e c #0F4ADA",
"r c #0753DE",
"t c #1852D7",
"y c #1251DF",
"u c #0245E3",
"i c #0847E0",
"p c #0249E4",
"a c #0848E2",
"s c #024BEB",
"d c #114DE2",
"f c #0655E2",
"g c #065EE6",
"h c #0858E3",
"j c #0350E9",
"k c #065EEB",
"l c #085FEF",
"z c #075EF0",
"x c #0E59F3",
"c c #0660E7",
"v c #0860E7",
"b c #0661EB",
"n c #0860ED",
"m c #066AEF",
"M c #0A6EEC",
"N c #0862F2",
"B c #066CF1",
"V c #0B6DF2",
"C c #0D6CFA",
"Z c #0777F6",
"A c #0974F4",
"S c #0779F6",
"D c #0B7AF5",
"F c #0976F8",
"G c #077AF8",
"H c #097CF8",
"J c #1274F7",
"K c #1079F3",
"L c #1A75FC",
"P c #167CFC",
"I c #1A7CFD",
"U c #0B83F6",
"Y c #0C83F8",
"T c #1484F6",
"R c #1B84F7",
"E c #1585FA",
/* pixels */
"            SZFZSFFSFSSGGGGFGZGGGGZFDX            ",
"            6&;,:,,,<<<<<<<<111<<<,;g             ",
"            6<FFFFSFFFFGFGHHGUHGYUU,b@            ",
"            61DsppppppspsspsppsppjU1g@            ",
"            62F<;;>>:::;:>>>::::;<Y1k*            ",
"            w2D,;KKDJDDDKADKSDDK>,U1b-            ",
"            02D,:N<<<<<<<<<<<1<N,,Y1b-            ",
"            02S,,m2GFFFAAFAAFG6n,,Y1b$            ",
"            02G,:m60*$@@+@@##03l,,Y4b&            ",
"            02S,:B66+ooX...o+26v<,Y1b$            ",
"            w2S>:B16+.     .+16n,>Y1k#            ",
"            06H,:m26o       o46b,,U1b&            ",
"            06H,,m21o       o46n>>U1k*            ",
"            w3S,,m16         46n<,U1k#            ",
"            w3S,:B12         12v,,U2b#            ",
"            03F,:B12         12m,:U1b&            ",
"            u3G,:B<2         56b,:U1k&            ",
"            03D,:B14         16v,>Y1k&            ",
"            00G,,m26         16k,:Y1k#            ",
"            00G,:m44         14n,>Y1v*            ",
"            w3G<,B16         17n,,Y1b#            ",
"            u3G<,m26         16b,,Y1b&            ",
"            0uG<,B16         46N>;Y1c&            ",
"            wuH<<B26         16b,>Y<v&            ",
"            wuH<,m97         26n<:Y1k&            ",
"            wuH<<A7t=       +16b,;U<b#            ",
"            uuG30Vee%o     o+2wk,:Y1k$            ",
"            wuHFDCdw;#@@@@@@#00b,;Y<b#            ",
"            wuHCRJqGFAMFAAAMVF2b,>U1k#            ",
"            uuYPEA7<<,<,>,>><<,z,>U<v#            ",
"            waTxVUDFSAJDZDDADAFU;;Y1c#            ",
"            adT7,,:;;;;;;;;;;;;;&;D<b$            ",
"            yaK1;><<<<,<,<>>,,,;&;Y<k#            ",
"            waH<:DbbkzkklklkkkbH;;H<g$            ",
"            0uH<,F1wpppipiwipp1B:;Y<k&            ",
"            wuH<,V0s1<1  <<<<p0B::Y<b$            ",
"            iuF<:V30$+     +@60B:;D<b$            ",
"            wwG<,A30@      O+40B;;Y<b$            ",
"            wuH,<A20+       +66B::H,g#            ",
"            wwH<,A66+       +16V;:H>c$            ",
"            00H<,B20+o     X+46m>;Y<k$            ",
"            w0G<:A60$@+   +@$2wA;:D>g             ",
"            0uD<:A2mhhffffjhhz6B;;D,v             ",
"            00D,:A<4211111<112<B;;D>c             ",
"            w0D,&MDMMAMMMMMMMMMM&;D:c             ",
"            w0H:$+@@@+$++@+$$++$+;D;b             ",
"            w0D>++OOOOXOOOOOXOOO+&D>c             ",
"            w0D>$+%+++++++++++++@;K>              ",
"             iHjwwww8ww6w8ww888wwrY1              ",
"              LPIIIIIPPIIIIIIIIIIELE              "
};
