/* XPM */
static char *_c1c1686794b40b2a5dfbfffc6453815d31mM75ydIQCkqQX[] = {
/* columns rows colors chars-per-pixel */
"50 50 242 2 ",
"   c #04162D",
".  c #051426",
"X  c #041632",
"o  c #051835",
"O  c #081938",
"+  c #061C4C",
"@  c #091D4E",
"#  c #061945",
"$  c #071D55",
"%  c #0A2249",
"&  c #0C2656",
"*  c #112755",
"=  c #112955",
"-  c #142B59",
";  c #0D2B6C",
":  c #152D6C",
">  c #162D66",
",  c #1A3369",
"<  c #193668",
"1  c #0E2B75",
"2  c #0D2C79",
"3  c #132E74",
"4  c #102D79",
"5  c #1B3C7B",
"6  c #183976",
"7  c #0D3075",
"8  c #223975",
"9  c #2A4D7C",
"0  c #2B507D",
"q  c #385C7E",
"w  c #344F7C",
"e  c #19417C",
"r  c #1C3E8D",
"t  c #153E84",
"y  c #1A3E92",
"u  c #203E8A",
"i  c #233D94",
"p  c #1D428D",
"a  c #1B4788",
"s  c #1C4293",
"d  c #1E4B99",
"f  c #1E5F9B",
"g  c #264586",
"h  c #2A4D84",
"j  c #24448B",
"k  c #29468A",
"l  c #264B8C",
"z  c #2A4A8B",
"x  c #284985",
"c  c #2C5585",
"v  c #345B84",
"b  c #375988",
"n  c #234B92",
"m  c #274994",
"M  c #2A5595",
"N  c #375A95",
"B  c #344E98",
"V  c #396287",
"C  c #36669E",
"Z  c #2D739C",
"A  c #31739B",
"S  c #2C6A9D",
"D  c #2659A5",
"F  c #345BA9",
"G  c #285DB4",
"H  c #2C64A2",
"J  c #2866A8",
"K  c #3266A4",
"L  c #3265AB",
"P  c #346BAC",
"I  c #3869A8",
"U  c #2D72A4",
"Y  c #3675AA",
"T  c #2D66B3",
"R  c #3C6CB3",
"E  c #3C6BBA",
"W  c #3867B6",
"Q  c #3C72BD",
"!  c #3C7BBC",
"~  c #3A76B6",
"^  c #456A9B",
"/  c #47719F",
"(  c #446DA5",
")  c #486CA9",
"_  c #4776A9",
"`  c #4167B5",
"'  c #436CB4",
"]  c #436BBC",
"[  c #4166B8",
"{  c #4777B8",
"}  c #5377BB",
"|  c #5179AC",
" . c #3C6CC3",
".. c #3768C5",
"X. c #3B75C3",
"o. c #3B73CB",
"O. c #3B7BCD",
"+. c #3675C8",
"@. c #3B7DD5",
"#. c #3E7CDB",
"$. c #3B78D3",
"%. c #2F70C1",
"&. c #3E7CE1",
"*. c #456BC5",
"=. c #437AC4",
"-. c #4B7DC3",
";. c #427CCC",
":. c #4878C8",
">. c #547DC8",
",. c #437BD5",
"<. c #476ED0",
"1. c #3C81BC",
"2. c #3A85BC",
"3. c #4782BA",
"4. c #5C8BB5",
"5. c #5C87BA",
"6. c #678AAE",
"7. c #628BB5",
"8. c #6692BF",
"9. c #3D84C9",
"0. c #3E83DC",
"q. c #3D84D5",
"w. c #3E84E1",
"e. c #478ACC",
"r. c #4A8CCC",
"t. c #4885C8",
"y. c #5689CA",
"u. c #4992CC",
"i. c #5798C9",
"p. c #4284D4",
"a. c #4C85D4",
"s. c #448AD4",
"d. c #4383DB",
"f. c #498AD7",
"g. c #5888D6",
"h. c #4B94D5",
"j. c #5A9CD4",
"k. c #5897D7",
"l. c #638DCB",
"z. c #678ECA",
"x. c #6494CD",
"c. c #6B94CC",
"v. c #6B9BCB",
"b. c #6696C7",
"n. c #729BCC",
"m. c #7197C9",
"M. c #628DD8",
"N. c #6495D1",
"B. c #6A95D1",
"V. c #6C9CD4",
"C. c #639ADA",
"Z. c #6698D7",
"A. c #749BD7",
"S. c #5BA2DC",
"D. c #5CACDB",
"F. c #57A3D7",
"G. c #5EB4D4",
"H. c #5EB2DA",
"J. c #5AADD0",
"K. c #62ABCE",
"L. c #63ADD5",
"P. c #62ABDC",
"I. c #6AADDC",
"U. c #68A5D7",
"Y. c #77A6D9",
"T. c #63B4D3",
"R. c #6AB2D4",
"E. c #62B2DC",
"W. c #6DB2DA",
"Q. c #71B5DC",
"!. c #72AACA",
"~. c #4384E3",
"^. c #488AE6",
"/. c #559AE1",
"(. c #679AE6",
"). c #779DE8",
"_. c #5BA5E3",
"`. c #63AEE3",
"'. c #67A3E6",
"]. c #79A6E4",
"[. c #64B3E3",
"{. c #7DB4EC",
"}. c #7DB2E4",
"|. c #71A1F3",
" X c #84ABDE",
".X c #89ABDC",
"XX c #86A5DA",
"oX c #9ABBDA",
"OX c #84B6DF",
"+X c #A3BDDD",
"@X c #84ABE3",
"#X c #8CABE2",
"$X c #85ADE9",
"%X c #89A8E6",
"&X c #81B3EC",
"*X c #88B7EB",
"=X c #9DBBE3",
"-X c #9EBCEB",
";X c #99B7E9",
":X c #8BBDF6",
">X c #96BCF7",
",X c #83A8F6",
"<X c #A3BFE2",
"1X c #A3BFF4",
"2X c #98C2D5",
"3X c #97C1EA",
"4X c #9CC4F4",
"5X c #94C4FE",
"6X c #9BC4FC",
"7X c #9BC9FF",
"8X c #96C8F7",
"9X c #A3C7EE",
"0X c #A3C4FB",
"qX c #A4CBFE",
"wX c #AACDFF",
"eX c #A5C7F4",
"rX c #A5D4FF",
"tX c #ACD3FF",
"yX c #ACDAFF",
"uX c #A8D6FA",
"iX c #B2D5F4",
"pX c #BEDAF4",
"aX c #B2D4FE",
"sX c #B3DBFE",
"dX c #BBDDFE",
"fX c #B8D8F7",
"gX c #B7D4F1",
"hX c #B5E2FF",
"jX c #BCE3FF",
"kX c #BCEBFF",
"lX c #B3E8FF",
"zX c #BDF0FF",
"xX c #C3DEFD",
"cX c #C3E4FF",
"vX c #C4ECFF",
"bX c #CAEBFF",
"nX c #C9E6FF",
"mX c #C4F2FF",
"MX c #CBF3FF",
"NX c #CCFBFF",
"BX c #D0F5FF",
"VX c #D3FAFF",
/* pixels */
".   O # # @ @ @ $ + @ @ $ $ % % @ * @ @ @ @ @ @ + + + + + # + + + + + % % # $ $ % # @ & @ @ O   . . ",
"O O = - 8 8 < , , , , , 4 t < < , , , , , , , , > , , , , , , < , , < < < < , , < < 8 8 8 > * O O . ",
"* = 6 x B z h c k z k k m l k x k m m z l l l l l l l l l z k z l z z m l h c h k z x l B z 6 > %   ",
"& 6 m.qXwXwXrXqXwXwXwXwX0XqXqX7X7X7X7X7X7X7X7X7X7X7X7X7X7X7X7X7XqX0X0XqX7XqXqXrXqXwXtXtXtXwX' 3 % . ",
"; e B.wX].).XXA.n.n.m.m.B.Z.B.Z.B.x.N.N.N.x.N.N.x.N.x.x.v.b.x.v.b.v.c.m.v.m.m.m.A.).XXA.Y.jX} t =   ",
"7 5 z.>X} >.7.} 7.6.6.6.7.7.7.7.8.4.7.4.4.4.5.4.4.4.4.4.4.4.4.4.7.4.7.7.6.6.6.6.7.5.} | V hX] u = O ",
": 8 c.1XXX<XgXxXpXpXgXxXgXpXfXsXiXiXiXiXiXiXiXiXaXiXiXiXiXgXiXgXfXfXfXfXpXpXxXpXxXfXwXXXV xX*.i -   ",
"3 8 z.;XXXeXxXnXnXnXxXcXjXlXhXhXhXdXjXdXhXdXdXhXhXsXhXfXjXjXjXlXdXsXdXdXxXcXcXcXcXnXxX+Xb xX*.i -   ",
": 6 N.:X@XtXbX!._ R L F F W D K K K K L K H H U K C H H H K C H P J L F F F W ` { .XbX2Xq aX*.y =   ",
": 5 Z.:X XwXvXn.} |.>.E ,.;.a.f.r.a.e.t.f.e.e.e.e.e.e.e.r.r.r.r.q.h.a.<.<.E a.(.:.Y.kX2Xq tX .s = X ",
"3 5 N.&X XwXcXB.Z.5XsX).{ a.h.k./.'._._.S.F.F.F.F.S.S.S.S.S._._.|./.g.y.{ Y.hX5XR Y.cXoXq tX] s =   ",
": 5 Z.&X XwXcXz.R 7XzXvX X{ y.(._._._.`.[.H.G.T.H.E.E.[._.`.`.'.k._.y.{ OXmXzX5XL A.hX=Xq sX` r = X ",
"> 6 N.{.@XtXjXz.D L uXNXmX!.{ k.`.D.D.G.T.G.G.G.G.G.G.H.E.E._.D.F.r._ *XzXNX5X=.G (.dX;Xq wXR r * X ",
"> 6 N.{.@XrXcXz.E D / fXMXmXQ.~ t.F.P.H.G.G.G.G.G.G.T.G.G.E.D.F.u.! @XNXNXrX=.;.T (.dX-Xq aX` p =   ",
"3 5 N.{.$XwXcXb.;.:.M ) aXBXNXY.3.e.j.P.J.G.T.G.T.T.G.L.I.P.j.i.~ }.mXVXyX_ t.g.T C.hX=Xv aX` s = o ",
"3 5 N.{.&XqXjX8.{ ;.] m ) dXMXvXU.3.X.i.i.i.J.4.i.i.i.i.i.u.{ ~ }.kXMXuX) { ;.t.L U.sXoXv aXE p = o ",
": 5 Z.{.$XwXjX8.P =.E E n I sXmXMXn.I R _ 3.Y 3._ 1.Y 3.Y R I Y.mXNXrX{ R =.Q Q H N.hX-Xb tXE p * o ",
": 5 N.&X$XqXjX8.{ t.f.g.{ a ( sXMXbXY.{ } t.i.y.y.i.y.t.3.} n.MXzXyXR { >.a.a.t.H N.jX-Xc rXW p * o ",
": 5 N.&X$XqXjXb.Q ,.f.,.p.W a ( fXbXvXY.Q O.;.a.=.r.;.X.R v.BXMXrX{ Q *.d.d.a.;.J Z.dX<Xc tX` r = o ",
"> 6 c.&X$XrXjXb.Q @.d.0.d.p.~ a / fXVXkX(...o.#.p.$...=.].kXBXtX} T ;.d.d.,.,.p.J Z.dX-Xv tX` j = O ",
": 5 B.&X$XwXhXy.%.~.d.~.^.q.q.X.m ) hXMXcX].o.o.<.o. .N.vXmXqX{ T p.+.^.~.^.w.+.G j.dX1Xv wX` j = O ",
": 5 B.&X$XwXjXx.%.d.w.0.w.w.s.,...d C jXBXkX'.W ..W (.vXMXrX:.%.d.+.^.~.0.w.0.$.T C.dX;Xb tX` u = o ",
": 5 B.&X$XwXhXx.%.$.0.^.q.q.p.p.@.%.m _ aXMXmXV.L g.aXcX0X-.+.#.+.s.q.q.~.q.O.s.J C.dX1Xv wX` u = o ",
": 5 c.&X$XwXjXi.Q s.9.q.q.9.f.p.q.@.E m ( sXMXkXY.A.;X0X-. .@.@.p.e.p.s.q.s.s.%.J k.dX-Xv rX` j = O ",
"3 5 x.&X$XwXhXz.P X.2.2.2.2.3.{ t.{ L P t ) sXMXvX.Xz.' R E Q X.! 1.3.! 1.1.! ! f Z.dX<Xb yX[ r - O ",
"3 t b.&X@XrXjX8.H P U Y Z Z U S H U Y L F n ( dXBXvXB.P L L P Y I U U S U U U P f x.dX=Xv tX[ m - O ",
"3 a c.&X XwXvXb.y.U.I.W.T.R.Q.W.I.I.C.Z.' { N / sXbXvXn.-.g.P.U.W.W.R.R.W.W.I.P.S U.cXoXv rXE s - o ",
"3 5 x.*X XtXbXn.3.j.L.R.G.T.R.R.J.j.k.' Y.sX@Xb ( sXMXvXY.t.r.U.I.U.R.R.R.R.L.i.Y Y.vX<XV yX[ y - o ",
"3 5 b.:X XaXvXn.t.C.R.R.T.T.I.D.k.k.{ b.jXvX7XR a C jXMXbXv.! k.S.L.I.R.L.R.I.j.Y Q.nX<Xq yX] j & o ",
"3 5 b.8X XaXbXY.3.j.L.T.G.D.P.F.h.! v.MXvXyXy.X.X.M ^ hXMXvX'.X.u.i.P.E.K.T.L.i.U Y.nX<XV hX' r = o ",
"3 5 b.8X.XaXvXY.r.S.`.E.G.F.F.e.{ V.vXMXdX} 9.h./.t.M ^ xXbXmXU.e.u.F.H.H.L.P.k.P }.bX<XV sX] r = o ",
", 6 b.8X.XwXcXV.t.k.P.D.D.F.h.1.v.kXMXhX{ e.h./._._.} M / jXmXkXj.e.u.F.D.`.`.k.Y Y.nX+Xq dX] r & X ",
", < m.4X%XwXjXn.t.j.P.F._.h.=.v.zXmXsX5.-.k.S.L.D.[.C.-.M / lXmXzXv.{ /.F.D.`.k.P Y.cX+Xq aX] i =   ",
"> 8 z.6X%XwXjXU.3.J.i.'.a.X.j.lXmXsX3.y.t.k.K.K.K.N.j.(.{ a / kXVXhXV.t.q.F.h.F.U Y.cX+Xq sX] j = X ",
"7 6 v.5X%XwXkXb.S U J D L i.kXNXsX>.W ' L R A A A A Y E ] F l ( hXMXvX4.J Q T L H Y.jX2XV yX] r * X ",
"7 5 x.:X@XrXkXv.{ t.g.*.l.hXvXhXy.*.g.a.Z.i.i.i.i.K.i.k.k.g.:.s ^ dXMXkXN.{ :.,.J '.jXoX0 yXE s & o ",
"2 a N.*X}.wXjXv.....E l.vXmXyX>.G ,.$.r.e.9.u.9.3.u.9.e.r.p.,...d ) dXbXcXz.*.<.G '.hX3Xv yX%.s = o ",
"7 7 N.&X XrXcXc.....M.lXjXhX>...,.@.s.f.9.h.9.s.q.s.9.9.p.f.d.#...d ^ fXMXvXM.W D C.hX3Xv yXE r * X ",
"7 e N.$X.XiXdXz.F >.yXzXkX3...<.#.d.p.9.h.q.&.^.^.0.f.h.s.f.0.d.w.%.n ( jXvXsXg.D U.sX-Xv aX) r *   ",
"; e N.&X.XwXdXz.:.6XkXhX{ W ,.&.d.d.d.s.p.d.^.~.~.~.~.q.9.d.d.0.w.@...d ) wXjX5XJ U.sX=Xb aX` g = X ",
"> 6 Z.&X#X0XcXc.M.5X6X>.....&.&.#.@.@.q.q.@.,.&.&.#.#.q.q.q.@.q.#.$.<.<.d ] 5X:X{ C.xX=Xb aX[ i = X ",
", 8 B.$X#XwXvX7.{ g.<.W ..o.$.o.X.X.X.+.X.X.o.o.o.o.X.X.X.+.+.X.%.$...<...n I N.R (.dX=Xb aX*.r = X ",
": 5 l.&X$X0XhXY.y.>.{ } y.y.a.y.y.b.l.x.z.c.c.c.B.z.c.z.x.z.x.y.r.(.g.>.g.-.{ { { }.dX=Xv tX*.r & o ",
"1 a N.{.$X>XsXsXtXtXsXdXsXyXhXjXhXcXjXjXcXcXcXcXcXbXcXvXcXcXjXjXhXyXjXdXrXsXhXtXhXrXaX;XV rXW s * o ",
"; 5 v.}.A.,X>X7X0X>XwX1X1X0XqX6X0X0XeX0X0X0X0X0X0X0X0X0X0XeX6X0X0X6XqX0X6X6X6X0X7X6X,XA.N rXE p & O ",
"6 : b.{.>.(.).%X$X%XXX#X%X#X#X X@X.X.X.XXX.X.X#X#X#X.X.X.X.X X.X.X#X%XXX@X&X@X%XY.$X%Xl.I rX] a * X ",
"> 6 N.rX>X6X4X4X8X4X-X1X1XeX-X0X4X6X9X3X9X9XeXuXeXiXeX9X9X4X0X0X<X1X0X0X6X-X9X4X4X3X3XrX>XtX] u * O ",
"- , 5 N N V 0 9 h c w w 9 h x c z h 9 9 9 0 0 c 0 0 0 0 9 9 h h h h h N N b b h c V b b N ` i 5 * O ",
"O % ; 5 k k z k g g g g u k u k k k g g g g g g g g g g g g j k k k k j k u k k u k j g g g u , # O ",
"X o # & ; 1 3 3 1 3 1 1 3 3 1 1 1 1 1 1 1 1 1 1 1 1 1 1 1 1 1 3 4 4 1 3 1 1 3 1 1 1 1 4 3 ; $ # O . "
};
