/* XPM */
static char *d6181a5e18fd499acc2d168df837e0acKzCWvQJS3V5sIlGI[] = {
/* columns rows colors chars-per-pixel */
"50 50 233 2 ",
"   c None",
".  c #25123B",
"X  c #371753",
"o  c #4B1A6A",
"O  c #471966",
"+  c #5E237C",
"@  c #3C2D89",
"#  c #3D3295",
"$  c #3D339C",
"%  c #2F3190",
"&  c #3B36A2",
"*  c #363BAC",
"=  c #3B39AA",
"-  c #3738A5",
";  c #343DB3",
":  c #383FB6",
">  c #2C3DA8",
",  c #432A85",
"<  c #442C8A",
"1  c #4C2B8B",
"2  c #4B2A86",
"3  c #5C2382",
"4  c #5B298B",
"5  c #562887",
"6  c #432F92",
"7  c #4D2D93",
"8  c #4D2F98",
"9  c #5C2C94",
"0  c #552E96",
"q  c #443195",
"w  c #4B3295",
"e  c #43339B",
"r  c #4C339A",
"t  c #53329C",
"y  c #5D319E",
"u  c #533096",
"i  c #622283",
"p  c #63278B",
"a  c #642C8B",
"s  c #622B94",
"d  c #622E9B",
"f  c #682A96",
"g  c #792599",
"h  c #693298",
"j  c #6C3396",
"k  c #4C35A3",
"l  c #4B3AAB",
"z  c #4337A3",
"x  c #5C35A4",
"c  c #523AAB",
"v  c #5637A9",
"b  c #4A3CB2",
"n  c #553DB4",
"m  c #6C2FA3",
"M  c #7E2FAB",
"N  c #6232A3",
"B  c #6C32A3",
"V  c #6736A8",
"C  c #7637A8",
"Z  c #683CB7",
"A  c #743ABB",
"S  c #7837B4",
"D  c #1947BC",
"F  c #3244A8",
"G  c #3644BA",
"H  c #5441BC",
"J  c #4543BC",
"K  c #6640BD",
"L  c #7455B9",
"P  c #773EC7",
"I  c #6E3FC4",
"U  c #1B4BC3",
"Y  c #274DC7",
"T  c #3546C7",
"R  c #3A55C9",
"E  c #394DD5",
"W  c #3958D9",
"Q  c #2E57CD",
"!  c #1473D3",
"~  c #3C6CDD",
"^  c #2F77D9",
"/  c #395BE9",
"(  c #0A7DE3",
")  c #0276FD",
"_  c #0477FD",
"`  c #1776FD",
"'  c #3563E8",
"]  c #3F7BEC",
"[  c #3B69FC",
"{  c #376AFA",
"}  c #3977F7",
"|  c #2975FD",
" . c #4448C5",
".. c #5947C7",
"X. c #4652CC",
"o. c #5658CB",
"O. c #5654DD",
"+. c #534ED9",
"@. c #6B43C9",
"#. c #7846C9",
"$. c #6857C9",
"%. c #7557C9",
"&. c #6749D6",
"*. c #7A47D1",
"=. c #7755D8",
"-. c #6C5ED5",
";. c #5D6BCE",
":. c #486BD8",
">. c #506DD5",
",. c #6765CC",
"<. c #7967DA",
"1. c #726FDA",
"2. c #4659E5",
"3. c #565BF4",
"4. c #6955E6",
"5. c #635BF2",
"6. c #7B5CE1",
"7. c #587BEB",
"8. c #4666FA",
"9. c #5664F8",
"0. c #5573F7",
"q. c #4872EA",
"w. c #7768EB",
"e. c #767BE6",
"r. c #6874F5",
"t. c #7572F8",
"y. c #85259D",
"u. c #8A2BA7",
"i. c #952CAE",
"p. c #952DB1",
"a. c #8838B8",
"s. c #9C3EBB",
"d. c #9A37B9",
"f. c #8F30AA",
"g. c #A43ABB",
"h. c #8A42BC",
"j. c #8C46B9",
"k. c #954AB9",
"l. c #9C52BB",
"z. c #8057BD",
"x. c #853DC6",
"c. c #9537C3",
"v. c #9B3BC6",
"b. c #9C34C2",
"n. c #A836C8",
"m. c #B23BCD",
"M. c #B63ED2",
"N. c #D43FEE",
"B. c #D83FEF",
"V. c #D83FF0",
"C. c #8646C8",
"Z. c #9345C7",
"A. c #8858C7",
"S. c #9959C6",
"D. c #9649D2",
"F. c #9554D7",
"G. c #874CD3",
"H. c #A845C7",
"J. c #A458C9",
"K. c #BA46D5",
"L. c #AA57D5",
"P. c #B958D9",
"I. c #AD46D2",
"U. c #8E69D8",
"Y. c #A664D8",
"T. c #A37BDA",
"R. c #905EE2",
"E. c #BA4BE0",
"W. c #B75AE5",
"Q. c #BD5DF3",
"!. c #AB5DE4",
"~. c #897AE6",
"^. c #9877E8",
"/. c #876AFA",
"(. c #9868F9",
"). c #8A75F0",
"_. c #A967E7",
"`. c #BC63E2",
"'. c #B26BE4",
"]. c #B565EC",
"[. c #BA6AEB",
"{. c #B769E9",
"}. c #AE79ED",
"|. c #A775EB",
" X c #B774E9",
".X c #A964F7",
"XX c #B761F4",
"oX c #B375F3",
"OX c #C345DC",
"+X c #C54DDC",
"@X c #CB5ADF",
"#X c #D251DF",
"$X c #D34FDF",
"%X c #C946E9",
"&X c #D34FE1",
"*X c #D040EC",
"=X c #CC5AE2",
"-X c #C856E2",
";X c #D355E3",
":X c #D844F3",
">X c #C55AF4",
",X c #D153F6",
"<X c #C767E8",
"1X c #D662EB",
"2X c #C575EB",
"3X c #DC78F5",
"4X c #DA6CF3",
"5X c #EA6AF8",
"6X c #0B84ED",
"7X c #0884E9",
"8X c #169BF1",
"9X c #3D86F5",
"0X c #3285EA",
"qX c #19A1F0",
"wX c #18A3EE",
"eX c #2AA4EE",
"rX c #4680EF",
"tX c #4884F4",
"yX c #5A81F1",
"uX c #6F82EB",
"iX c #51A2EA",
"pX c #76A3ED",
"aX c #69A2EB",
"sX c #9C9AF5",
"dX c #918DE5",
"fX c #AC9CF4",
"gX c #AA9AF3",
"hX c #B59BF6",
"jX c #A993EC",
"kX c #8AA1F1",
"lX c #AFA1F0",
"zX c #D587F6",
"xX c #C793F6",
/* pixels */
"                                                                                                    ",
"                                                                                                    ",
"            . . X X O o o o o o o o o o o o o o o o o               o @ # e H L A.jXT.L             ",
"            + J.P.=X-X-X=X=X#X#X#X#X#X#X&X&X&X&X&X&X=XC     > > F R rXuXkXe.$...H c t L             ",
"            a.,X%X%X%X*X%X*X*XN.N.N.:XN.V.V.:X:X:X:X5X=.:.0XtXrXq.E E  . .H H Z K 4 < z.            ",
"            a.,X4XQ.XX!.].].].[.{.{.[.[.[.[.].].oXsXt.0.' / E E E X.O.w.~.|.^.R.2X9 2 A.            ",
"            a.>X3XL.m                           w.9.3.' { } 9XtX7.q.O.+.+.&.*.@.2Xf 5 A.            ",
"            h.>X3XJ.                            o.8.8.9X2./ { ' q.0.e.e.U.%.].x.<Xj 5 A.            ",
"            x.Q.3XJ.                            G [ { ] } } ' Q T T : b z v L.x.<Xf + S.            ",
"            C.Q.zXS.                            F [ { ] 9X/ Y G ; ; & z k x L.c.=Xj 2 S.            ",
"            C.XXzXS.                            F { { tX} / Y G ; * & $ k x H.c.;Xg 3 J.            ",
"            C.XXzXS.                            F { { tX9X/ T G ; - & e r N H.b.=Xg + J.            ",
"            C..XzXA.                            F [ [ 7.0./ E : ; - & $ r d g.b.-Xg i J.            ",
"            #..XzXA.                            F 8.8.uXuX/ T : ; - & $ 8 f n.n.&Xg + J.            ",
"            %..XzXA.                              8.8.uXt.2.T : * & $ e 8 N g.b.+Xy.3 J.            ",
"            A.(.xX%.                              9.9.e.).2.T : * & $ e t d g.n.&Xy.3 J.            ",
"            %.(.xX%.                              9.3.).^.2.T = - & $ e 7 y g.n.OXy.i I.            ",
"            %.(.xX%.                              9.3.^..XO.J = & $ $ 6 7 d p.n.OXy.+ J.            ",
"            %./.xX%.                              5.5.|..XO.b * & $ e 6 7 9 p.m.OXy.i J.            ",
"            %./.hX$.                              5.4.|.!.O.b = & $ # 6 7 d p.M.OXu.i l.            ",
"            -./.hX$.                              =.&.{.W.&.b & $ # 6 6 7 s i.m.M.i.i l.            ",
"            ,.t.gXo.                              =.&.{.E.&.l $ $ $ # 6 7 s i.m.M.u.+ l.            ",
"            $.t.gXo.                              *.@.W.E.@.l e $ 6 6 6 7 s p.K.M.i.+ s.            ",
"            ;.t.sXo.                              #.P W.E.I k e e 6 6 6 u 9 i.I.m.i.i k.            ",
"            ;.r.sXX.                              #.A -XE.I k k k e q 6 t 9 p.K.m.p.+ j.            ",
"            ;.0.sXX.                              C.S -XE.I n b l l c v v V a.K.n.d.i j.            ",
"            >.0.kXR                               C.S W.I.oX X}.oX}.}.}.}.}.2XI.n.v.3 j.            ",
"            >.0.kXR                               j.C -XP *.*.P P @.P P P P P S n.v.4 a.            ",
"            >.8.pXR                               h.d S.F.D.L.L.L.`.`.`.`.<X<X<X<Xu.+ K             ",
"            :.} pXQ                               h.r c n n b c v v v v x x N N d 5 + C             ",
"            ^ } aXT                               h.r rXq.7.0.r.r.w.w.w.6.6.=.=.=.d + K             ",
"            ^ } iXY                               h.J q. .2.X.X. ...@.K Z A A S Z.H.4 j 3           ",
"            ^ | iXY                               h.c q.~ W R >.,.<.U._.].[.<XP.v.n.p B 3           ",
"            ( ` iXU                               h.z uX'  .e $ q q u 0 y m a.;Xv.M.p B 3           ",
"            ( ` eXU                               s.c uX>.J # @ < , < 1 5 9 a.=Xv.M.p h 4           ",
"            ( _ qXU                               k.t ~.$.H q < @ @ , 2 2 0 M 1Xc.M.p h a           ",
"            ( _ qXU                               s.v ^.A.H 6 < , , , 2 2 4 M 1Xd.K.a s a           ",
"            7X) qXU                               s.N '.A.Z w w < < < 1 1 9 M 1Xc.OXa f j           ",
"            6X) qXU                               s.N '.G.C.K v v t t t t x M 1Xd.K.a f j           ",
"            6X) qXU                               s.d `.A G.F.!.{. X X'.L.S.D.4Xa.%Xf s j           ",
"            6X) qXU                               s.9 A.'.{. X'.!.F.G.C.x.C.Z.Z.x.+Xp 9 B           ",
"            6X) qXD                               g.0 u 0 x x V Z A C.F.!.`.2X X`.K.4 4             ",
"            7X) 8XD                               H.y t r r 8 r 8 r t u t x h V B d 5 1             ",
"            ! 7X8XD                               <XF.@.H n c l k k r r w w 7 7 1 2 + <             ",
"                                                        gXhXjXdX<.$...H b l k r q 1 < 7             ",
"                                                                    dXlXgXjX~.-.&...b v             ",
"                                                                                  gXlXhX            ",
"                                                                                                    ",
"                                                                                                    ",
"                                                                                                    "
};
