/* XPM */
static char *fb0acc5354a5455aa9f7e5e9efeaa4efofe3bxVp0Zs1xZdS[] = {
/* columns rows colors chars-per-pixel */
"50 50 221 2 ",
"   c None",
".  c #160A04",
"X  c #191606",
"o  c #0E0F01",
"O  c #26170A",
"+  c #391D0E",
"@  c #341D11",
"#  c #2E1F13",
"$  c #29290C",
"%  c #3B200F",
"&  c #2B310D",
"*  c #353A0D",
"=  c #2C2B12",
"-  c #3C2313",
";  c #342A15",
":  c #3A3818",
">  c #383527",
",  c #491E0B",
"<  c #412B1A",
"1  c #4C2B1A",
"2  c #472715",
"3  c #49341B",
"4  c #54311F",
"5  c #5B311A",
"6  c #463B23",
"7  c #493622",
"8  c #5A3824",
"9  c #653922",
"0  c #3B4215",
"q  c #474A1C",
"w  c #474619",
"e  c #4C531B",
"r  c #51531E",
"t  c #474726",
"y  c #54472A",
"u  c #535423",
"i  c #5C5E24",
"p  c #585927",
"a  c #4A4737",
"s  c #564C33",
"d  c #5C5235",
"f  c #5E5339",
"g  c #565735",
"h  c #4A5124",
"j  c #64452D",
"k  c #684F2D",
"l  c #6A4D36",
"z  c #794B33",
"x  c #6B5534",
"c  c #655B3E",
"v  c #6C5B3B",
"b  c #645636",
"n  c #785A3C",
"m  c #6E5429",
"M  c #5D6528",
"N  c #566137",
"B  c #6B6C2D",
"V  c #626427",
"C  c #6B722C",
"Z  c #71712E",
"A  c #676937",
"S  c #6D7337",
"D  c #767836",
"F  c #75603D",
"G  c #585844",
"H  c #645C41",
"J  c #785B42",
"K  c #6C664C",
"L  c #6C6447",
"P  c #736342",
"I  c #736A4D",
"U  c #7B6C4C",
"Y  c #776848",
"T  c #747946",
"R  c #6D6C51",
"E  c #676858",
"W  c #746D51",
"Q  c #777054",
"!  c #7B7354",
"~  c #7C755A",
"^  c #7B7A5C",
"/  c #6F7942",
"(  c #787764",
")  c #854D30",
"_  c #865137",
"`  c #985B3D",
"'  c #927A3D",
"]  c #8A5E48",
"[  c #9C5E41",
"{  c #8D6A41",
"}  c #986348",
"|  c #82714E",
" . c #8E764F",
".. c #93744A",
"X. c #897654",
"o. c #857854",
"O. c #847B5B",
"+. c #8B7D5A",
"@. c #877956",
"#. c #9D7E51",
"$. c #987A5A",
"%. c #A66B4D",
"&. c #857F62",
"*. c #7D8337",
"=. c #7C843B",
"-. c #7F8839",
";. c #7D8755",
":. c #7B884E",
">. c #82863A",
",. c #8A8C3D",
"<. c #878847",
"1. c #8C944B",
"2. c #949A46",
"3. c #989A49",
"4. c #8A8659",
"5. c #978458",
"6. c #8C9353",
"7. c #919853",
"8. c #A78A5B",
"9. c #A49E4E",
"0. c #9CA44B",
"q. c #9FAD4F",
"w. c #9DA652",
"e. c #9DA656",
"r. c #A2A94B",
"t. c #A9AD59",
"y. c #B4B75C",
"u. c #8B8364",
"i. c #8E8969",
"p. c #958964",
"a. c #9E8B64",
"s. c #948C6A",
"d. c #978C68",
"f. c #9B936E",
"g. c #888975",
"h. c #9C9573",
"j. c #9C997C",
"k. c #969578",
"l. c #928F73",
"z. c #A88F63",
"x. c #BB8964",
"c. c #A49B75",
"v. c #AD9E76",
"b. c #A49D7B",
"n. c #A69976",
"m. c #B39F73",
"M. c #A8976F",
"N. c #9EA467",
"B. c #99A172",
"V. c #A9AB6D",
"C. c #B7A869",
"Z. c #B6BA68",
"A. c #ABA27D",
"S. c #A9A776",
"D. c #B5A379",
"F. c #B5BD6C",
"G. c #C48A66",
"H. c #C3926D",
"J. c #CD9D79",
"K. c #BDC372",
"L. c #BFC76D",
"P. c #C2C56A",
"I. c #CBCC7C",
"U. c #C3C875",
"Y. c #CCD27C",
"T. c #ACA581",
"R. c #AFA984",
"E. c #A9A687",
"W. c #B3AA84",
"Q. c #B3AD8A",
"!. c #B7A984",
"~. c #BBB48D",
"^. c #B9B089",
"/. c #A8A992",
"(. c #BCB691",
"). c #BEB993",
"_. c #BDBC9E",
"`. c #B2B094",
"'. c #ADB198",
"]. c #BDBEA2",
"[. c #C1B58C",
"{. c #C2B886",
"}. c #C4BB95",
"|. c #CABE95",
" X c #C4BE99",
".X c #C8BE9E",
"XX c #D3BA94",
"oX c #CEA882",
"OX c #BAC680",
"+X c #CBCB88",
"@X c #CED089",
"#X c #D4D98A",
"$X c #C6C29D",
"%X c #CCC39D",
"&X c #CBC694",
"*X c #D4C69D",
"=X c #D8D993",
"-X c #CAC6A1",
";X c #CDC9A4",
":X c #C7C5A5",
">X c #D3CBA3",
",X c #D3CFAA",
"<X c #DBCCA4",
"1X c #D4D1AD",
"2X c #DBD3AD",
"3X c #D4D2B3",
"4X c #D9D5B2",
"5X c #DDD8B4",
"6X c #DEDCBA",
"7X c #CCD2A7",
"8X c #E2DBB5",
"9X c #E3DDB9",
"0X c #E5E2BE",
"qX c #DFE2C8",
"wX c #E9E5C2",
"eX c #EBE8C6",
"rX c #EDECCC",
"tX c #E6E4C5",
"yX c #F2EECC",
"uX c #F2F2D4",
"iX c #F1F0CE",
/* pixels */
"                                                  +X=X+X                                            ",
"                              S               R V.+X+X+X@XS.                                        ",
"                                : B 6.      ^ V.1.K.U.K.Y.#X                                        ",
"                                  = * D Z.4.B.F.3.t.+XI.U.I.U.                                      ",
"                                  w & & & t N.K.I.K.L.P.Z.=XP.                                      ",
"                                    B X X $ e u 3.C *.y.U.#XY.7X6.D S M <.                          ",
"                                      X o N t <.r q V C >.Z.P.q.e 0 * * w                           ",
"                                        & ;.h h S C 2.i t.*.V.-.C * *                               ",
"                                          T D V w 9.r.V V.y.e.r.0.=.                                ",
"                                          B e V * D 0.,.9.P.D y                                     ",
"                                  g./.].].A u : i y.P.*.,.0.                                        ",
"                                +.c E.h.d.> u w u Z ,.' 2.A }.4X                                    ",
"                              `.d.U G : 6 ; X u V 2.0.B ; o T.^.yX                                  ",
"                              A.s.o.: 6 : $ O . r p O 7 2 - !.v.>X3X                                ",
"                            c.u.v P H ; s y 3 . . O @ - O # [.U |.iX                                ",
"                          Q.Q.tX3Xu.d H b y @.X.+ 1 8 1 9 < *X7 [.8XrX                              ",
"                          qXtX4X3X4X4X$Xf.x %XD.@.+ 1 2 2 s |.7 [.>XwXeX                            ",
"                          _.).Q.(.rXiXuXeX^.>X%X*X7 2 1 2 h.%XY %X,X2X0Xg.                          ",
"                          l.u.i.3XrXuXeX*X0X[.2X<Xu.4 8 < [.%X@.-X>X,X4XeX                          ",
"                            E.].3X_.-XD.[.[.eX4X&X@X5.- 2 |..X+. X&X(.%X0X                          ",
"                            '.j.E.I R.! %X0XOX#X2.S <.> a &X[.^.[.%Xc.~.5X:X                        ",
"                              ~ i.Q c s h.:.;.K.$ 2.A > a 2X[.+.}.~.+.~.,X3X                        ",
"                              E.i.~ y s s A q 3 ` J.B U.o.>XR.y A.p.o.~.;X3X                        ",
"                              ( f.H f 6 f g 7 8 [ G.y G ~ %XJ j n | f.W.-X6X                        ",
"                                O.Y b y 6 j 2 R._ x.- ; 7 - + < n X.!.R.>X6X                        ",
"                                +.Y F v Y 2 ]  X) H.7 @..XR + 4 l F b.[.1X6X                        ",
"                                W v F U p., %X9X9 H.n >X5X^.% 1 k O.b. X,X6X                        ",
"                                  x k x @.$.D.wX .[ z.8X-X-XQ I b v A.(.;X3X                        ",
"                                E H x k n  .8.0Xv.` {.0X}.(.1Xh.k U c.~.$XE.                        ",
"                                E.i.v.M.a...#.8Xv.` *X8X~.R.-X(.= +.d.A.~.                          ",
"                                /.o.[.}.v.$.8.8X! ` <X0X%X$X;X).7 | c.).4X                          ",
"                                j.I n..X>X#.{ .Xv _ *X0X2X-X4X(.w =.<.1.                            ",
"                                &.J E.1X8Xz.` !.v ) *X8X6X$X&Xi.p w.w.e.7.                          ",
"                                Q R E..X8X8...m.U z XX8X6X4X%XA C Z.-.2.r.                          ",
"                                I Q W (..Xz.8.#.|.9 XX8X4X4X-Xg ' e.M 3./                           ",
"                                K I I _.8X|.m...2X5 oX8X4X1X>XL C.t M 0.                            ",
"                              E &.K ~ j.8XwX8X$.D.j J.0X6X,X$XR.o.Y >.                              ",
"                              g.&.H K j.-X9X0X*X8.z H.9X4X:X).%Xh.8. X                              ",
"                              l.&.s ~ Q.b.T. XeXz.n x.9X1X;X-X-X:X;X,X                              ",
"                              l.Q H h.R.h.b.T.}.2XW.%.9X3X;X%X;X;X;X,X(                             ",
"                              i.u.K R.Q.A.Q.c.O.:X.X[ 4X1X1X%X,X;X$X-X/.                            ",
"                              ( I i.R.^.b.:XS.I ! | z p.,X;Xh.! T.j.O.                              ",
"                            E Q K ^ b.~.A.~.i.I I X.9 Y : g e.M S                                   ",
"                            E f Q G I ~.$XR.~     +.y 5.& & D e.=.                                  ",
"                                      L     ;     K J ]     $ u.                                    ",
"                                                      $.                                            ",
"                                                      }                                             ",
"                                                      ]                                             ",
"                                                      J                                             ",
"                                                      l                                             "
};
